name C:\Users\u0150099\Documents\master_thesis\3dpredictsim\Results\debug\Fal_s1_mtjc2_sc_cspx10_oy2_ATx70_Fpsl10_MTc4_MTPm_k1_d01_tau_MTJm_nl_MG_exp5_table_d01_PF_Natali2010_ls146_FDB2_lTs125_Fpsl10_ig21_wAk5e+04_wa2e+03_wpMnD1e+03_pelvis_bounds.mot
datacolumns 130
datarows 4
range 0.52738759 0.55903084
endheader
time	pelvis_tilt	pelvis_list	pelvis_rotation	pelvis_tx	pelvis_ty	pelvis_tz	hip_flexion_l	hip_adduction_l	hip_rotation_l	hip_flexion_r	hip_adduction_r	hip_rotation_r	knee_angle_l	knee_angle_r	ankle_angle_l	ankle_angle_r	subtalar_angle_l	subtalar_angle_r	mtj_angle_l	mtj_angle_r	mtp_angle_l	mtp_angle_r	lumbar_extension	lumbar_bending	lumbar_rotation	arm_flex_l	arm_add_l	arm_rot_l	arm_flex_r	arm_add_r	arm_rot_r	elbow_flex_l	elbow_flex_r	pro_sup_l	pro_sup_r	glut_med1_l/activation	glut_med2_l/activation	glut_med3_l/activation	glut_min1_l/activation	glut_min2_l/activation	glut_min3_l/activation	semimem_l/activation	semiten_l/activation	bifemlh_l/activation	bifemsh_l/activation	sar_l/activation	add_long_l/activation	add_brev_l/activation	add_mag1_l/activation	add_mag2_l/activation	add_mag3_l/activation	tfl_l/activation	pect_l/activation	grac_l/activation	glut_max1_l/activation	glut_max2_l/activation	glut_max3_l/activation	iliacus_l/activation	psoas_l/activation	quad_fem_l/activation	gem_l/activation	peri_l/activation	rect_fem_l/activation	vas_med_l/activation	vas_int_l/activation	vas_lat_l/activation	med_gas_l/activation	lat_gas_l/activation	soleus_l/activation	tib_post_l/activation	flex_dig_l/activation	flex_hal_l/activation	tib_ant_l/activation	per_brev_l/activation	per_long_l/activation	per_tert_l/activation	ext_dig_l/activation	ext_hal_l/activation	FDB_l/activation	ercspn_l/activation	intobl_l/activation	extobl_l/activation	glut_med1_r/activation	glut_med2_r/activation	glut_med3_r/activation	glut_min1_r/activation	glut_min2_r/activation	glut_min3_r/activation	semimem_r/activation	semiten_r/activation	bifemlh_r/activation	bifemsh_r/activation	sar_r/activation	add_long_r/activation	add_brev_r/activation	add_mag1_r/activation	add_mag2_r/activation	add_mag3_r/activation	tfl_r/activation	pect_r/activation	grac_r/activation	glut_max1_r/activation	glut_max2_r/activation	glut_max3_r/activation	iliacus_r/activation	psoas_r/activation	quad_fem_r/activation	gem_r/activation	peri_r/activation	rect_fem_r/activation	vas_med_r/activation	vas_int_r/activation	vas_lat_r/activation	med_gas_r/activation	lat_gas_r/activation	soleus_r/activation	tib_post_r/activation	flex_dig_r/activation	flex_hal_r/activation	tib_ant_r/activation	per_brev_r/activation	per_long_r/activation	per_tert_r/activation	ext_dig_r/activation	ext_hal_r/activation	FDB_r/activation	ercspn_r/activation	intobl_r/activation	extobl_r/activation	
          0.52738759	         -9.48697069	          1.92981404	         -3.38408064	          0.70142549	          0.90415593	          0.00271555	         35.08598465	          2.88862753	         -1.40055179	         -7.42197390	          0.99628694	         11.05172095	        -11.21341116	        -14.92757080	         10.44197677	          7.11495560	          3.70046770	         10.59594256	          0.01922159	         -1.07979228	          0.78361953	         14.91575325	          2.51354128	         -0.92241980	          1.85326606	         -1.95970770	        -13.46280659	         11.72383248	          1.15932183	        -13.85820164	         19.38605060	         18.65385878	         50.03482044	         86.51662706	         86.51662706	          0.05000013	          0.05000015	          0.05878905	          0.05000011	          0.05000015	          0.05000051	          0.37055409	          0.08715238	          0.27062922	          0.13175550	          0.05878611	          0.10219114	          0.19655294	          0.10086946	          0.13799422	          0.13039056	          0.05000367	          0.05011436	          0.17356383	          0.05878706	          0.05878975	          0.05879145	          0.08139352	          0.09559418	          0.22496070	          0.06596581	          0.05000057	          0.05000007	          0.05000020	          0.05000017	          0.05000015	          0.05467337	          0.05000100	          0.05000004	          0.05000053	          0.05000080	          0.05000052	          0.36358954	          0.06327637	          0.09247628	          0.18276634	          0.57011517	          0.32326406	          0.26996455	          0.05878983	          0.08943663	          0.09570053	          0.19576769	          0.08127696	          0.05000129	          0.30207744	          0.17268043	          0.09666579	          0.05000115	          0.05000032	          0.05000022	          0.05000108	          0.09649941	          0.05000014	          0.05000014	          0.05000036	          0.05000094	          0.05000065	          0.63139707	          0.05000061	          0.05000053	          0.05000775	          0.05000153	          0.05000039	          0.24867674	          0.76760815	          0.05000018	          0.05000113	          0.05000026	          0.34199831	          0.11744066	          0.13534782	          0.10736221	          0.38321245	          0.46930498	          0.28365893	          0.46341910	          0.42204387	          0.50925353	          0.05000002	          0.06133086	          0.13690730	          0.05000010	          0.05000006	          0.08127663	          0.77509082	          0.05000002	          0.05000003	          0.05000006	
          0.53793534	         -9.48602452	          1.96642298	         -3.64047495	          0.71790746	          0.90269019	          0.00256010	         34.98702913	          3.15338788	         -1.47312917	         -7.90875034	          0.74210100	         11.23970552	        -11.82293207	        -15.65253683	          9.89204592	          6.20040693	          3.74943128	         11.25545208	          0.32478592	         -1.99756578	          0.15462879	         17.23844197	          2.67060767	         -1.03186632	          1.89011430	         -2.63775308	        -13.44997383	         10.78612567	          0.64141178	        -13.84037742	         19.36839803	         18.00066264	         51.96550730	         86.51662706	         86.51662706	          0.05878978	          0.05878979	          0.05000011	          0.05878986	          0.05878985	          0.05878963	          0.33596716	          0.07412207	          0.23666861	          0.11205647	          0.05000072	          0.17604689	          0.25196281	          0.08578846	          0.15733068	          0.14093099	          0.05000019	          0.05866490	          0.14761418	          0.05000021	          0.05000014	          0.05000150	          0.09556486	          0.09556480	          0.52483882	          0.28479280	          0.12023117	          0.05000004	          0.05000004	          0.05000004	          0.05000003	          0.05000021	          0.05000019	          0.05000002	          0.05879121	          0.05878998	          0.05879203	          0.37586939	          0.09810709	          0.12085230	          0.15544108	          0.62527439	          0.27493231	          0.22960165	          0.05000007	          0.07606477	          0.08139214	          0.16649810	          0.06912519	          0.05000007	          0.25691331	          0.14686271	          0.08221324	          0.05000133	          0.05000026	          0.05000012	          0.05000062	          0.08207185	          0.09509009	          0.05000635	          0.05000068	          0.05000187	          0.05000069	          0.65510303	          0.05878246	          0.05000056	          0.05000073	          0.05000035	          0.05000023	          0.21149656	          0.73255410	          0.05000007	          0.05000038	          0.05000073	          0.29086546	          0.15529503	          0.16227903	          0.13799970	          0.34741735	          0.42648986	          0.24500319	          0.41764946	          0.36602954	          0.43311537	          0.05000000	          0.05876363	          0.11643801	          0.05000008	          0.05000004	          0.06912482	          0.65920529	          0.05000002	          0.05000022	          0.07867079	
          0.54848309	         -9.48187282	          2.01357090	         -3.87202936	          0.73466792	          0.90126338	          0.00238565	         34.87759003	          3.38389880	         -1.52738718	         -8.31527173	          0.48041575	         11.39701716	        -13.06945750	        -16.48615333	          8.92009727	          5.10276390	          3.80849242	         11.93128975	          0.62667712	         -3.00381922	         -0.44043897	         19.74455909	          2.83874793	         -1.15820291	          1.91907255	         -3.33396680	        -13.45810497	         10.10176904	          0.05716322	        -13.81360170	         19.29756596	         17.37943815	         53.87101843	         86.51662706	         86.51662706	          0.05000001	          0.05000004	          0.07896853	          0.05000008	          0.05000008	          0.05000008	          0.28573618	          0.06303994	          0.20128378	          0.09530267	          0.08127704	          0.14972592	          0.29449583	          0.32886682	          0.18606937	          0.16226208	          0.05879055	          0.06916317	          0.12554415	          0.05000154	          0.09800496	          0.14814500	          0.08127683	          0.08127685	          0.72101557	          0.24221290	          0.10225541	          0.06912535	          0.05880597	          0.06067726	          0.05879052	          0.06912479	          0.06913330	          0.06912477	          0.05000125	          0.05000031	          0.05000201	          0.47152715	          0.18567194	          0.10278350	          0.37400068	          0.53178893	          0.23382667	          0.19527340	          0.05000000	          0.06469216	          0.06922303	          0.14160463	          0.05879037	          0.05879003	          0.21850169	          0.12490501	          0.06992149	          0.05000235	          0.05000111	          0.05166304	          0.05000021	          0.06980136	          0.22876188	          0.05000076	          0.16164860	          0.05879053	          0.08162340	          0.55716020	          0.05000295	          0.05880430	          0.05879083	          0.05879020	          0.05879030	          0.17987527	          0.72996750	          0.06912458	          0.05880494	          0.05878983	          0.24737755	          0.16616510	          0.18962974	          0.17160035	          0.29547434	          0.36272488	          0.20837222	          0.35520586	          0.31130380	          0.36835946	          0.06164527	          0.05000004	          0.09902913	          0.05000004	          0.05000003	          0.05878984	          0.56064605	          0.07135002	          0.06561633	          0.06857340	
          0.55903084	         -9.47440026	          2.09100903	         -4.07776749	          0.75165650	          0.89992706	          0.00223173	         34.68594090	          3.53504751	         -1.49794265	         -8.63155289	          0.20334624	         11.52832372	        -14.51444412	        -17.43902051	          7.86891360	          3.83691470	          3.87527425	         12.58934985	          0.88880555	         -4.08235347	         -0.93309901	         22.29788445	          3.01886906	         -1.32363056	          1.93906285	         -4.03131438	        -13.49124996	          9.66579922	         -0.58346359	        -13.77298720	         19.19721036	         16.76308456	         55.74058573	         86.51662706	         86.51662706	          0.28007044	          0.35035604	          0.45922742	          0.39203079	          0.28605589	          0.29658241	          0.24379830	          0.15972251	          0.18943572	          0.11628404	          0.06912526	          0.12734014	          0.25046523	          0.27969731	          0.15825012	          0.22309696	          0.05000079	          0.05882416	          0.22019595	          0.22795355	          0.20903029	          0.23352462	          0.06912498	          0.06912499	          0.61321500	          0.20599977	          0.27870623	          0.05879027	          0.05001377	          0.05160527	          0.05000063	          0.05878979	          0.05879703	          0.05878977	          0.05878983	          0.05879005	          0.05878991	          0.57612557	          0.15791175	          0.08741618	          0.40210625	          0.72509644	          0.55015208	          0.52751616	          0.07252935	          0.09503032	          0.05887335	          0.15812173	          0.05000059	          0.05000023	          0.18583331	          0.10623030	          0.05946747	          0.05000102	          0.05000029	          0.05000013	          0.05876041	          0.05936547	          0.20429716	          0.16402444	          0.13748032	          0.05000175	          0.06942014	          0.64038330	          0.05883528	          0.05001263	          0.05000141	          0.05000055	          0.05000052	          0.15298175	          0.79128573	          0.05878963	          0.05001300	          0.05000008	          0.21039159	          0.14132144	          0.16127782	          0.14594403	          0.25129733	          0.30849312	          0.17721803	          0.30209829	          0.26476012	          0.31328529	          0.21045777	          0.11838450	          0.08422324	          0.23010546	          0.05000009	          0.05000011	          0.47682262	          0.09852358	          0.05580589	          0.05832087	
